<?xml version="1.0" encoding="utf-8"?>
<!-- Generator: Adobe Illustrator 19.2.1, SVG Export Plug-In . SVG Version: 6.00 Build 0)  -->
<svg version="1.1" id="One_line_x2C__cmyk_x2C__reverse"
	 xmlns="http://www.w3.org/2000/svg" xmlns:xlink="http://www.w3.org/1999/xlink" x="0px" y="0px" viewBox="0 0 26.7874 34.8094"
	 style="enable-background:new 0 0 26.7874 34.8094;" xml:space="preserve">
<style type="text/css">
	.st0{fill:#0051A5;stroke:#FFFFFF;stroke-width:0.75;}
	.st1{fill:#FEDF01;}
	.st2{fill:#FFFFFF;}
</style>
<g>
	<g>
		<g>
			<g>
				<g>
					<path class="st0" d="M26.1349,30.0502c0,1.1075-0.4541,1.7496-1.3403,2.0904c-3.4433,1.3281-7.5215,2.0127-11.4009,2.0127
						c-3.8789,0-7.957-0.6846-11.4013-2.0127c-0.8858-0.3408-1.3399-0.9829-1.3399-2.0904V0.6562h25.4824V30.0502z"/>
				</g>
			</g>
		</g>
	</g>
</g>
<g>
	<path class="st1" d="M12.8784,22.7337h-0.4948c-0.8245-1.6423-2.3088-2.625-3.793-3.6282v1.1544H8.0958
		c-0.4948-1.159-1.3139-2.2931-2.4737-3.1334c-0.6734-0.4879-1.4774-1.1475-1.9327-1.9085
		c-0.2827-0.4725-0.5411-1.1195-0.5411-1.8846c0-0.4676,0.1218-1.0044,0.3299-1.3193l0.4947,0.4947
		c-0.1138,0.325-0.1649,0.4933-0.1649,0.8246c0,1.1682,1.0107,2.1054,3.958,3.958C10.4115,18.9543,12.7135,20.6035,12.8784,22.7337z
		 M23.1032,21.7442v0.9895h-0.4948c-0.0491-1.1595-1.3193-1.4843-2.3088-1.4843h-3.2983c0,0,0.1661,0.9964,0.1661,1.6492
		l-0.0012,0.8246h-0.4947c-0.3299-2.7967-1.6423-4.6108-3.7931-6.1019v1.1544h-0.4948c-0.5652-1.2727-1.3891-2.2361-2.7592-3.202
		l0.2561,0.166L9.62,15.565c-0.2876-0.1963-0.6276-0.4493-1.0294-0.7473v1.3193H8.0958c-0.4864-1.279-1.2778-2.3234-2.3089-3.442
		c-0.0308-0.0335-0.0619-0.0671-0.0931-0.1007c-0.3423-0.3109-0.6402-0.5948-0.8995-0.8595
		c-0.7351-0.7506-1.1599-1.3468-1.4062-1.9665C3.2321,9.3756,3.1483,8.8804,3.1483,8.221c0-0.9996,0.6726-1.8182,1.3194-2.1439
		v0.8246C4.1423,7.3308,3.9729,7.6704,3.9729,8.221C3.9698,8.7295,4.0694,9.0315,4.3213,9.5112
		c0.7906,1.5047,3.2451,3.1846,4.9289,4.317c2.3572,1.5857,3.5885,2.4444,4.6177,3.1334c2.4737,1.656,2.9249,3.5033,2.9685,3.6282
		l4.2714-0.3299c0.5125-0.331,1.3484-1.152,1.6656-1.8141l-1.9942-0.0097c-0.0856,0.323-0.1891,0.6563-0.3147,0.9992h-0.4947
		c0,0,0.0979-0.4895,0.1649-0.9895h-0.8246v-0.4887l0.9261-0.0831c-0.0014-0.0019,0.1439-0.8527,0.1094-1.9002l-2.1875-0.0008
		c0.0086,0.8883,0.1625,1.4833,0.1625,1.4833h-0.4947c0,0-0.2262-0.5705-0.3031-1.4835l-1.1597-0.0005
		c0.1408,0.7408,0.1434,1.484,0.1434,1.484h-0.4947c-0.0284-0.5574-0.2878-1.4096-0.4947-1.814
		c-0.433-0.8462-1.1921-1.4646-2.6387-2.4738v1.1544h-0.4948c-0.5191-1.5904-1.8617-2.4132-3.4632-3.4632
		c-1.3744-0.8549-1.979-1.4841-1.979-3.2983l0.6597,0.3298C7.6033,9.0585,8.9204,10.2,9.9099,10.2
		c0.8222,0,1.3091-0.1458,1.644-0.237c0.6738-0.1837,1.6492-0.433,2.6438-0.0928V8.8807H13.703
		c-0.3198,0.2627-0.749,0.4112-1.3195,0.4112c-1.1543,0-1.8139-0.7435-1.8139-1.5656c0-1.1519,0.9997-1.4843,1.979-1.4843h1.3193
		c0.1623,0.0026,0.4263-0.0711,0.5013-0.1462c0.0862-0.0864,0.1144-0.1764,0.1355-0.2923c0.0229-0.1408,0.0229-0.3055,0.0229-0.551
		V4.4279h-3.958v1.4843L9.5801,5.5824V4.4279h-1.979V3.2735H6.6116c-0.4444,0-0.9895,0.335-0.9895,0.9895
		c0,0.6649,0.3298,0.9895,0.8246,0.9895h0.1649v0.8246H6.4807c-1.0435,0-1.8481-0.7708-1.8481-1.8141
		c0-1.2987,0.9895-1.979,2.1439-1.979h1.8141v1.1544h6.9265v1.8141c0,0.2975-0.0017,0.6606-0.0323,0.9124
		c-0.0222,0.1835-0.1162,0.47-0.4625,0.7368c-0.1597,0.121-0.4947,0.1649-0.8246,0.1649h-1.814
		c-0.4848,0-0.8246,0.2905-0.8246,0.6597c0,0.3691,0.4057,0.7384,0.8904,0.7384c0.1988,0,0.3814-0.0509,0.5285-0.1357
		c0.174-0.1004,0.3462-0.2729,0.3951-0.4378h1.8141v2.7653l1.7242-0.9512h4.3111c0,0,1.7682,0.9228,2.0725,1.0838
		c0.3622,0.1917,0.4748,0.4769,0.4907,0.7275c0.0132,0.2089-0.0718,0.4975-0.1878,0.6624l-0.8245,1.1544
		c0.7458,0.8351,1.1544,2.0387,1.1544,3.242c0,1.5406-0.7433,2.9079-1.8921,3.7718C22.5606,20.6075,23.0966,21.1989,23.1032,21.7442
		z M23.0075,15.9748l-1.8843-0.0007c-0.0069,0.5524-0.0639,1.1696-0.1992,1.8401l2.0786-0.184
		c0.0491-0.2555,0.088-0.5785,0.088-0.8412C23.0906,16.5098,23.0614,16.2377,23.0075,15.9748L23.0075,15.9748z M22.7188,15.0282
		c-0.3582-0.7878-1.1373-1.6044-2.0889-1.9971c0.1241,0.2344,0.2038,0.513,0.2557,0.79c0.0846,0.34,0.1672,0.7819,0.2095,1.3107
		L22.7188,15.0282z M12.8784,11.9352l1.809-1.0029c-0.3213-0.2307-1.1492-0.3303-1.6441-0.3303
		c-0.8244,0-1.8141,0.4226-1.8141,0.4226L12.8784,11.9352z M19.1587,11.8437c1.0272,0,2.0116,0.2818,2.7901,0.8301l0.7598-1.0638
		l-1.7533-0.9152h-3.7891l-3.2983,1.814c0.5728,0.3974,1.0991,0.8848,1.4842,1.3194
		C16.1855,12.6155,17.5483,11.8437,19.1587,11.8437z M19.475,12.8387h-0.6596c-0.41,0.8683-0.5819,1.7351-0.6368,2.4793
		l2.1038-0.1343C20.0962,13.7805,19.475,12.8387,19.475,12.8387z M17.4976,15.3614c0.001-0.6756,0.0967-1.4743,0.389-2.3359
		c-0.8194,0.2946-1.5013,0.8654-1.9542,1.6047c0.0711,0.1623,0.1416,0.3644,0.1981,0.5017c0.037,0.0899,0.0748,0.2095,0.1043,0.3102
		L17.4976,15.3614z"/>
</g>
<g>
	<g>
		<path class="st2" d="M14.7997,27.4513c0.6061-0.0985,1.1859-0.5701,1.1859-1.283c0-0.6428-0.2731-1.3489-2.1653-1.3489
			c-1.4152,0-3.1923,0-3.1923,0v0.0516c0.0966,0.0296,0.2491,0.1078,0.349,0.2069c0.2169,0.2118,0.2883,0.5286,0.2989,0.9486v4.7792
			c0,0,1.749,0,2.6457,0c1.4552,0,2.5084-0.555,2.5084-1.8264C16.43,27.9454,15.6254,27.5052,14.7997,27.4513z M13.4385,25.39
			c0.677,0,1.1361,0.1465,1.1361,0.8695c0,0.7705-0.6153,0.9828-1.3171,0.9828c-0.3403,0-0.6046,0-0.6046,0V25.39
			C12.6529,25.39,13.0313,25.39,13.4385,25.39z M13.5067,30.2397c-0.2865,0-0.8538,0-0.8538,0v-2.4439c0,0,0.4642,0,0.8145,0
			c1.1192,0,1.5488,0.3334,1.5488,1.1725C15.0162,29.8759,14.4558,30.2397,13.5067,30.2397z"/>
		<path class="st2" d="M8.272,30.8057h1.7237l-2.2022-2.8152c0.8828-0.2362,1.5441-0.7188,1.5441-1.596
			c0-1.0302-0.6162-1.5751-2.2285-1.5751c-1.4294,0-3.3299,0-3.3299,0v0.0516c0.1225,0.0438,0.2598,0.123,0.3496,0.2114
			c0.233,0.2298,0.3025,0.5808,0.3025,1.0551c0,0.0014,0,4.6682,0,4.6682h1.3829v-2.6535c0,0,0.3003,0,0.5048,0L8.272,30.8057z
			 M5.8142,25.39c0,0,0.5254,0,0.9316,0c0.7756,0,1.1804,0.2266,1.1804,1.051c0,0.7349-0.5297,1.1701-1.3789,1.1701
			c-0.3403,0-0.7331,0-0.7331,0V25.39z"/>
		<path class="st2" d="M22.0215,25.6397c0.3698,0.2099,0.4822,0.4839,0.4844,0.4863c0.018,0.0202,0.0577,0.0137,0.0577,0.0137
			l0.3011-1.0236c0,0-0.5406-0.3882-1.8264-0.3882c-1.9461,0-3.4032,0.9804-3.4032,3.1254c0,2.4172,1.7357,3.0449,3.2655,3.0449
			c1.4235,0,1.9825-0.4526,1.9825-0.4526v-0.7024c0,0-0.5029,0.4698-1.5809,0.4698c-0.8911,0-2.1976-0.4067-2.2257-2.3942
			c-0.0262-1.8342,0.7737-2.4329,1.8457-2.4329C21.5195,25.3859,21.8184,25.5255,22.0215,25.6397z"/>
	</g>
</g>
</svg>
